<svg width="20" height="20" viewBox="0 0 20 20" fill="none" xmlns="http://www.w3.org/2000/svg">
<path d="M1.92941 10.5815C1.8878 10.2255 1.867 10.0475 1.87575 9.9007C1.92166 9.13143 2.48897 8.49395 3.24771 8.35905C3.39245 8.33331 3.57167 8.33331 3.9301 8.33331H12.7365C13.095 8.33331 13.2742 8.33331 13.4189 8.35905C14.1776 8.49395 14.745 9.13143 14.7909 9.9007C14.7996 10.0475 14.7788 10.2255 14.7372 10.5815L14.4033 13.4382C14.2526 14.7274 13.5637 15.8928 12.5068 16.6464C11.728 17.2016 10.7955 17.5 9.83909 17.5H6.82753C5.87114 17.5 4.93858 17.2016 4.15985 16.6464C3.10293 15.8928 2.41401 14.7274 2.26332 13.4382L1.92941 10.5815Z" stroke="white" stroke-width="1.25"/>
<path d="M14.1667 14.1667H15.8334C17.2141 14.1667 18.3334 13.0474 18.3334 11.6667C18.3334 10.286 17.2141 9.16669 15.8334 9.16669H14.5834" stroke="white" stroke-width="1.25"/>
<path d="M8.33346 1.66669C7.87322 2.12692 7.87322 2.87312 8.33346 3.33335C8.7937 3.79359 8.7937 4.53978 8.33346 5.00002" stroke="white" stroke-width="1.25" stroke-linecap="round" stroke-linejoin="round"/>
<path d="M4.16666 6.25002L4.26342 6.15326C4.68606 5.73062 4.73361 5.06152 4.37499 4.58335C4.01637 4.10519 4.06392 3.43609 4.48656 3.01345L4.58332 2.91669" stroke="white" stroke-width="1.25" stroke-linecap="round" stroke-linejoin="round"/>
<path d="M12.0832 6.25002L12.1799 6.15326C12.6026 5.73062 12.6501 5.06152 12.2915 4.58335C11.9329 4.10519 11.9804 3.43609 12.4031 3.01345L12.4998 2.91669" stroke="white" stroke-width="1.25" stroke-linecap="round" stroke-linejoin="round"/>
</svg>
