<svg width="20" height="20" viewBox="0 0 20 20" fill="none" xmlns="http://www.w3.org/2000/svg">
<path d="M15.8334 15H16.4584H15.8334ZM4.16675 12.1533H4.79175C4.79175 11.9049 4.64462 11.6801 4.41698 11.5806L4.16675 12.1533ZM15.8334 12.1533L15.5832 11.5806C15.3555 11.6801 15.2084 11.9049 15.2084 12.1533H15.8334ZM13.1251 5.83335C13.1251 6.17853 13.4049 6.45835 13.7501 6.45835C14.0953 6.45835 14.3751 6.17853 14.3751 5.83335H13.7501H13.1251ZM5.62508 5.83335C5.62508 6.17853 5.9049 6.45835 6.25008 6.45835C6.59526 6.45835 6.87508 6.17853 6.87508 5.83335H6.25008H5.62508ZM5.83341 4.16669V3.54169C3.18705 3.54169 1.04175 5.68699 1.04175 8.33335H1.66675H2.29175C2.29175 6.37735 3.87741 4.79169 5.83341 4.79169V4.16669ZM14.1667 4.16669V4.79169C16.1228 4.79169 17.7084 6.37735 17.7084 8.33335H18.3334H18.9584C18.9584 5.68699 16.8131 3.54169 14.1667 3.54169V4.16669ZM12.5001 18.3334V17.7084H7.50008V18.3334V18.9584H12.5001V18.3334ZM7.50008 18.3334V17.7084C6.69674 17.7084 6.15711 17.707 5.75457 17.6529C5.37002 17.6012 5.20544 17.5119 5.09684 17.4033L4.6549 17.8452L4.21296 18.2871C4.59252 18.6667 5.06485 18.8214 5.58802 18.8918C6.0932 18.9597 6.73208 18.9584 7.50008 18.9584V18.3334ZM4.16675 15H3.54175C3.54175 15.768 3.54042 16.4069 3.60834 16.9121C3.67868 17.4352 3.8334 17.9076 4.21296 18.2871L4.6549 17.8452L5.09684 17.4033C4.98825 17.2947 4.8989 17.1301 4.84719 16.7455C4.79308 16.343 4.79175 15.8034 4.79175 15H4.16675ZM15.8334 15H15.2084C15.2084 15.8034 15.2071 16.343 15.153 16.7455C15.1013 17.1301 15.0119 17.2947 14.9033 17.4033L15.3453 17.8452L15.7872 18.2871C16.1668 17.9076 16.3215 17.4352 16.3918 16.9121C16.4597 16.4069 16.4584 15.768 16.4584 15H15.8334ZM12.5001 18.3334V18.9584C13.2681 18.9584 13.907 18.9597 14.4121 18.8918C14.9353 18.8214 15.4076 18.6667 15.7872 18.2871L15.3453 17.8452L14.9033 17.4033C14.7947 17.5119 14.6301 17.6012 14.2456 17.6529C13.8431 17.707 13.3034 17.7084 12.5001 17.7084V18.3334ZM5.83341 4.16669V4.79169C6.01149 4.79169 6.18613 4.80478 6.3565 4.82996L6.44788 4.21168L6.53927 3.5934C6.30859 3.5593 6.07286 3.54169 5.83341 3.54169V4.16669ZM10.0001 1.66669V1.04169C8.07465 1.04169 6.44126 2.2851 5.85599 4.01096L6.44788 4.21168L7.03977 4.4124C7.45826 3.17837 8.62643 2.29169 10.0001 2.29169V1.66669ZM6.44788 4.21168L5.85599 4.01096C5.7061 4.45296 5.62508 4.926 5.62508 5.41669H6.25008H6.87508C6.87508 5.06431 6.93316 4.72679 7.03977 4.4124L6.44788 4.21168ZM14.1667 4.16669V3.54169C13.9273 3.54169 13.6916 3.5593 13.4609 3.5934L13.5523 4.21168L13.6437 4.82996C13.814 4.80478 13.9887 4.79169 14.1667 4.79169V4.16669ZM10.0001 1.66669V2.29169C11.3737 2.29169 12.5419 3.17837 12.9604 4.4124L13.5523 4.21168L14.1442 4.01096C13.5589 2.2851 11.9255 1.04169 10.0001 1.04169V1.66669ZM13.5523 4.21168L12.9604 4.4124C13.067 4.72679 13.1251 5.06431 13.1251 5.41669H13.7501H14.3751C14.3751 4.926 14.2941 4.45296 14.1442 4.01096L13.5523 4.21168ZM4.16675 15H4.79175V12.1533H4.16675H3.54175V15H4.16675ZM4.16675 12.1533L4.41698 11.5806C3.16482 11.0335 2.29175 9.78469 2.29175 8.33335H1.66675H1.04175C1.04175 10.2992 2.2255 11.9872 3.91652 12.726L4.16675 12.1533ZM15.8334 12.1533H15.2084L15.2084 15H15.8334H16.4584L16.4584 12.1533H15.8334ZM18.3334 8.33335H17.7084C17.7084 9.78469 16.8353 11.0335 15.5832 11.5806L15.8334 12.1533L16.0836 12.726C17.7747 11.9872 18.9584 10.2992 18.9584 8.33335H18.3334ZM13.7501 5.41669H13.1251V5.83335H13.7501H14.3751V5.41669H13.7501ZM6.25008 5.41669H5.62508V5.83335H6.25008H6.87508V5.41669H6.25008Z" fill="white"/>
<path d="M4.16675 15H15.8334" stroke="white" stroke-width="1.25" stroke-linecap="round" stroke-linejoin="round"/>
</svg>
