<svg width="15" height="22" viewBox="0 0 15 22" fill="none" xmlns="http://www.w3.org/2000/svg">
<path d="M2.675 21.5L5.75 5.95001C5.85 5.46667 6.075 5.10401 6.425 4.86201C6.775 4.62001 7.14167 4.49934 7.525 4.50001C7.90833 4.50067 8.26267 4.58401 8.588 4.75001C8.91333 4.91601 9.17567 5.16601 9.375 5.50001L10.375 7.10001C10.675 7.58334 11.0627 8.02101 11.538 8.41301C12.0133 8.80501 12.559 9.09234 13.175 9.27501V7.50001H14.675V21.5H13.175V11.35C12.375 11.1667 11.6333 10.875 10.95 10.475C10.2667 10.075 9.675 9.58334 9.175 9.00001L8.575 12L10.675 14V21.5H8.675V15.5L6.575 13.5L4.775 21.5H2.675ZM3.1 11.625L0 11.05L1.325 4.17501L4.45 4.77501L3.1 11.625ZM9.175 4.00001C8.625 4.00001 8.15433 3.80434 7.763 3.41301C7.37167 3.02167 7.17567 2.55067 7.175 2.00001C7.17433 1.44934 7.37033 0.978673 7.763 0.588007C8.15567 0.19734 8.62633 0.00134009 9.175 6.75675e-06C9.72367 -0.00132658 10.1947 0.194673 10.588 0.588007C10.9813 0.98134 11.177 1.45201 11.175 2.00001C11.173 2.54801 10.9773 3.01901 10.588 3.41301C10.1987 3.80701 9.72767 4.00267 9.175 4.00001Z" fill="black"/>
</svg>
