<svg width="20" height="20" viewBox="0 0 20 20" fill="none" xmlns="http://www.w3.org/2000/svg">
<path d="M6.72437 5.62402L5.79175 10.3555L4.19019 10.0586L5.10425 5.31348L6.72437 5.62402ZM11.2517 1.75C11.5737 1.74931 11.8389 1.85868 12.074 2.09375C12.3091 2.32889 12.4179 2.59388 12.4167 2.91504C12.4155 3.2391 12.3055 3.50689 12.072 3.74316C11.8419 3.97592 11.5783 4.08454 11.2527 4.08301H11.2498C10.9251 4.08293 10.6594 3.97316 10.4265 3.74023C10.1938 3.50732 10.0841 3.24156 10.0837 2.91602C10.0834 2.59129 10.1931 2.3269 10.4265 2.09473C10.6613 1.86116 10.9277 1.75079 11.2517 1.75ZM15.0837 10.3096L14.6951 10.2207C14.0763 10.0789 13.5061 9.85447 12.9822 9.54785C12.4592 9.24173 12.009 8.86741 11.6296 8.4248L10.9617 7.64453L10.7595 8.65234L10.2595 11.1523L10.2058 11.4219L10.405 11.6123L11.9998 13.1299V18.667H11.3337V13.9521L11.1785 13.8047L9.42847 12.1377L8.78882 11.5293L8.59546 12.3906L7.18335 18.667H6.44214L8.8855 6.30469C8.94762 6.00898 9.07473 5.82918 9.24292 5.71289C9.4602 5.56269 9.66752 5.49973 9.87378 5.5C10.1185 5.50043 10.3364 5.55254 10.5339 5.65332C10.7157 5.74607 10.8659 5.88686 10.9871 6.08984L10.9929 6.09863L11.825 7.42969V7.43066C12.1059 7.8833 12.4666 8.28811 12.9011 8.64648C13.3512 9.01768 13.8663 9.28852 14.4412 9.45898L15.0837 9.64941V8H15.3337V18.667H15.0837V10.3096Z" stroke="white"/>
</svg>
