<svg width="20" height="20" viewBox="0 0 20 20" fill="none" xmlns="http://www.w3.org/2000/svg">
<path d="M18.3334 18.3333L1.66675 18.3333" stroke="white" stroke-width="1.25" stroke-linecap="round"/>
<path d="M14.1666 18.3334V5.00002C14.1666 3.42867 14.1666 2.643 13.6784 2.15484C13.1903 1.66669 12.4046 1.66669 10.8333 1.66669H9.16659C7.59524 1.66669 6.80956 1.66669 6.32141 2.15484C5.83325 2.643 5.83325 3.42867 5.83325 5.00002V18.3334" stroke="white" stroke-width="1.25"/>
<path d="M17.4999 18.3334V7.08335C17.4999 5.91297 17.4999 5.32778 17.219 4.9074C17.0974 4.72542 16.9412 4.56917 16.7592 4.44757C16.3388 4.16669 15.7536 4.16669 14.5833 4.16669" stroke="white" stroke-width="1.25"/>
<path d="M2.5 18.3334V7.08335C2.5 5.91297 2.5 5.32778 2.78088 4.9074C2.90248 4.72542 3.05873 4.56917 3.24072 4.44757C3.66109 4.16669 4.24628 4.16669 5.41667 4.16669" stroke="white" stroke-width="1.25"/>
<path d="M10 18.3333V15.8333" stroke="white" stroke-width="1.25" stroke-linecap="round"/>
<path d="M8.33325 10H11.6666" stroke="white" stroke-width="1.25" stroke-linecap="round"/>
<path d="M4.58325 9.16669H5.83325" stroke="white" stroke-width="1.25" stroke-linecap="round"/>
<path d="M4.58325 11.6667H5.83325" stroke="white" stroke-width="1.25" stroke-linecap="round"/>
<path d="M14.1667 9.16669H15.4167" stroke="white" stroke-width="1.25" stroke-linecap="round"/>
<path d="M14.1667 11.6667H15.4167" stroke="white" stroke-width="1.25" stroke-linecap="round"/>
<path d="M4.58325 6.66669H5.83325" stroke="white" stroke-width="1.25" stroke-linecap="round"/>
<path d="M14.1667 6.66669H15.4167" stroke="white" stroke-width="1.25" stroke-linecap="round"/>
<path d="M8.33325 12.5H11.6666" stroke="white" stroke-width="1.25" stroke-linecap="round"/>
<path d="M10 7.50002V4.16669" stroke="white" stroke-width="1.25" stroke-linecap="round" stroke-linejoin="round"/>
<path d="M11.6666 5.83331L8.33325 5.83331" stroke="white" stroke-width="1.25" stroke-linecap="round" stroke-linejoin="round"/>
</svg>
