<svg width="20" height="20" viewBox="0 0 20 20" fill="none" xmlns="http://www.w3.org/2000/svg">
<path d="M4.52661 12.7432C4.6613 13.046 5.01593 13.1822 5.31869 13.0475C5.62145 12.9128 5.7577 12.5582 5.62301 12.2555L5.07481 12.4993L4.52661 12.7432ZM14.3776 12.2555C14.2429 12.5582 14.3792 12.9129 14.682 13.0475C14.9847 13.1822 15.3393 13.046 15.474 12.7432L14.9258 12.4993L14.3776 12.2555ZM10.6003 1.66602C10.6003 1.33464 10.3317 1.06602 10.0003 1.06602C9.66895 1.06602 9.40033 1.33464 9.40033 1.66602H10.0003H10.6003ZM9.40033 2.49935C9.40033 2.83072 9.66895 3.09935 10.0003 3.09935C10.3317 3.09935 10.6003 2.83072 10.6003 2.49935H10.0003H9.40033ZM18.3337 10.5993C18.665 10.5993 18.9337 10.3307 18.9337 9.99934C18.9337 9.66797 18.665 9.39934 18.3337 9.39934V9.99934V10.5993ZM17.5003 9.39934C17.169 9.39934 16.9003 9.66797 16.9003 9.99934C16.9003 10.3307 17.169 10.5993 17.5003 10.5993V9.99934V9.39934ZM2.50033 10.5993C2.8317 10.5993 3.10033 10.3307 3.10033 9.99934C3.10033 9.66797 2.8317 9.39934 2.50033 9.39934V9.99934V10.5993ZM1.66699 9.39934C1.33562 9.39934 1.06699 9.66797 1.06699 9.99934C1.06699 10.3307 1.33562 10.5993 1.66699 10.5993V9.99934V9.39934ZM16.3166 4.53087C16.5509 4.29655 16.5509 3.91665 16.3166 3.68234C16.0823 3.44803 15.7024 3.44803 15.4681 3.68235L15.8923 4.10661L16.3166 4.53087ZM14.8788 4.2716C14.6445 4.50592 14.6445 4.88582 14.8788 5.12013C15.1131 5.35445 15.493 5.35444 15.7273 5.12013L15.3031 4.69587L14.8788 4.2716ZM4.27339 5.12094C4.50771 5.35525 4.88761 5.35525 5.12192 5.12094C5.35624 4.88662 5.35624 4.50672 5.12192 4.27241L4.69766 4.69667L4.27339 5.12094ZM4.53266 3.68315C4.29835 3.44884 3.91845 3.44884 3.68414 3.68315C3.44982 3.91747 3.44982 4.29737 3.68414 4.53168L4.1084 4.10742L4.53266 3.68315ZM13.3721 14.2698L13.9676 14.3428L13.9676 14.3427L13.3721 14.2698ZM12.9766 13.8461V13.2461H12.9766L12.9766 13.8461ZM7.06396 13.8463V14.4463H7.06398L7.06396 13.8463ZM6.65763 14.2907L7.25334 14.2191L7.25334 14.2191L6.65763 14.2907ZM10.0056 18.3327L10.0127 17.7328C10.0066 17.7327 10.0006 17.7327 9.99451 17.7328L10.0056 18.3327ZM5.07481 12.4993L5.62301 12.2555C5.34132 11.6223 5.18366 10.9167 5.18366 10.1709H4.58366H3.98366C3.98366 11.0872 4.17762 11.9587 4.52661 12.7432L5.07481 12.4993ZM4.58366 10.1709H5.18366C5.18366 7.39822 7.35766 5.18268 10.0003 5.18268V4.58268V3.98268C6.65991 3.98268 3.98366 6.77103 3.98366 10.1709H4.58366ZM10.0003 4.58268V5.18268C12.643 5.18268 14.817 7.39822 14.817 10.1709H15.417H16.017C16.017 6.77103 13.3408 3.98268 10.0003 3.98268V4.58268ZM15.417 10.1709H14.817C14.817 10.9167 14.6593 11.6223 14.3776 12.2555L14.9258 12.4993L15.474 12.7432C15.823 11.9588 16.017 11.0872 16.017 10.1709H15.417ZM10.0003 1.66602H9.40033V2.49935H10.0003H10.6003V1.66602H10.0003ZM18.3337 9.99934V9.39934H17.5003V9.99934V10.5993H18.3337V9.99934ZM2.50033 9.99934V9.39934H1.66699V9.99934V10.5993H2.50033V9.99934ZM15.8923 4.10661L15.4681 3.68235L14.8788 4.2716L15.3031 4.69587L15.7273 5.12013L16.3166 4.53087L15.8923 4.10661ZM4.69766 4.69667L5.12192 4.27241L4.53266 3.68315L4.1084 4.10742L3.68414 4.53168L4.27339 5.12094L4.69766 4.69667ZM12.0974 16.088L12.2821 16.6589C13.4535 16.28 13.8611 15.2119 13.9676 14.3428L13.3721 14.2698L12.7765 14.1968C12.6931 14.8781 12.4254 15.3513 11.9128 15.5171L12.0974 16.088ZM13.3721 14.2698L13.9676 14.3427C14.0449 13.7109 13.5259 13.2461 12.9766 13.2461V13.8461V14.4461C12.9277 14.4461 12.8769 14.4259 12.8378 14.3848C12.7961 14.3409 12.7674 14.2714 12.7765 14.1969L13.3721 14.2698ZM12.9766 13.8461L12.9766 13.2461L7.06395 13.2463L7.06396 13.8463L7.06398 14.4463L12.9766 14.4461L12.9766 13.8461ZM7.06396 13.8463V13.2463C6.48788 13.2463 5.98721 13.7412 6.06192 14.3624L6.65763 14.2907L7.25334 14.2191C7.27042 14.3611 7.15738 14.4463 7.06396 14.4463V13.8463ZM6.65763 14.2907L6.06192 14.3624C6.11296 14.7868 6.2096 15.2203 6.45712 15.6222C6.70912 16.0314 7.08412 16.3548 7.60361 16.6217L7.8778 16.088L8.15198 15.5543C7.77918 15.3628 7.59062 15.1744 7.47887 14.9929C7.36264 14.8042 7.29534 14.5683 7.25334 14.2191L6.65763 14.2907ZM12.0974 16.088C12.0974 15.488 12.0974 15.488 12.0974 15.488C12.0973 15.488 12.0973 15.488 12.0972 15.488C12.0972 15.488 12.0971 15.488 12.097 15.488C12.0969 15.488 12.0968 15.488 12.0967 15.488C12.0966 15.488 12.0964 15.488 12.0963 15.488C12.0961 15.488 12.0959 15.488 12.0958 15.488C12.0956 15.488 12.0954 15.488 12.0952 15.488C12.0949 15.488 12.0947 15.488 12.0945 15.488C12.0942 15.488 12.094 15.488 12.0937 15.488C12.0934 15.488 12.0931 15.488 12.0928 15.488C12.0925 15.488 12.0922 15.488 12.0919 15.488C12.0915 15.488 12.0912 15.488 12.0908 15.488C12.0905 15.488 12.0901 15.488 12.0897 15.488C12.0893 15.488 12.0889 15.488 12.0885 15.488C12.088 15.488 12.0876 15.488 12.0871 15.488C12.0867 15.488 12.0862 15.488 12.0857 15.488C12.0853 15.488 12.0848 15.488 12.0842 15.488C12.0837 15.488 12.0832 15.488 12.0827 15.488C12.0821 15.488 12.0816 15.488 12.081 15.488C12.0804 15.488 12.0799 15.488 12.0793 15.488C12.0787 15.488 12.078 15.488 12.0774 15.488C12.0768 15.488 12.0762 15.488 12.0755 15.488C12.0748 15.488 12.0742 15.488 12.0735 15.488C12.0728 15.488 12.0721 15.488 12.0714 15.488C12.0707 15.488 12.07 15.488 12.0692 15.488C12.0685 15.488 12.0677 15.488 12.067 15.488C12.0662 15.488 12.0654 15.488 12.0646 15.488C12.0638 15.488 12.063 15.488 12.0622 15.488C12.0614 15.488 12.0605 15.488 12.0597 15.488C12.0588 15.488 12.058 15.488 12.0571 15.488C12.0562 15.488 12.0553 15.488 12.0544 15.488C12.0535 15.488 12.0526 15.488 12.0516 15.488C12.0507 15.488 12.0498 15.488 12.0488 15.488C12.0478 15.488 12.0469 15.488 12.0459 15.488C12.0449 15.488 12.0439 15.488 12.0429 15.488C12.0419 15.488 12.0408 15.488 12.0398 15.488C12.0388 15.488 12.0377 15.488 12.0366 15.488C12.0356 15.488 12.0345 15.488 12.0334 15.488C12.0323 15.488 12.0312 15.488 12.0301 15.488C12.0289 15.488 12.0278 15.488 12.0267 15.488C12.0255 15.488 12.0244 15.488 12.0232 15.488C12.022 15.488 12.0208 15.488 12.0196 15.488C12.0184 15.488 12.0172 15.488 12.016 15.488C12.0148 15.488 12.0135 15.488 12.0123 15.488C12.011 15.488 12.0097 15.488 12.0085 15.488C12.0072 15.488 12.0059 15.488 12.0046 15.488C12.0033 15.488 12.002 15.488 12.0007 15.488C11.9993 15.488 11.998 15.488 11.9966 15.488C11.9953 15.488 11.9939 15.488 11.9925 15.488C11.9911 15.488 11.9898 15.488 11.9884 15.488C11.9869 15.488 11.9855 15.488 11.9841 15.488C11.9827 15.488 11.9812 15.488 11.9798 15.488C11.9783 15.488 11.9769 15.488 11.9754 15.488C11.9739 15.488 11.9724 15.488 11.9709 15.488C11.9694 15.488 11.9679 15.488 11.9663 15.488C11.9648 15.488 11.9633 15.488 11.9617 15.488C11.9602 15.488 11.9586 15.488 11.957 15.488C11.9555 15.488 11.9539 15.488 11.9523 15.488C11.9507 15.488 11.949 15.488 11.9474 15.488C11.9458 15.488 11.9442 15.488 11.9425 15.488C11.9409 15.488 11.9392 15.488 11.9375 15.488C11.9358 15.488 11.9342 15.488 11.9325 15.488C11.9308 15.488 11.9291 15.488 11.9273 15.488C11.9256 15.488 11.9239 15.488 11.9221 15.488C11.9204 15.488 11.9186 15.488 11.9169 15.488C11.9151 15.488 11.9133 15.488 11.9115 15.488C11.9097 15.488 11.9079 15.488 11.9061 15.488C11.9043 15.488 11.9025 15.488 11.9006 15.488C11.8988 15.488 11.897 15.488 11.8951 15.488C11.8932 15.488 11.8914 15.488 11.8895 15.488C11.8876 15.488 11.8857 15.488 11.8838 15.488C11.8819 15.488 11.88 15.488 11.878 15.488C11.8761 15.488 11.8742 15.488 11.8722 15.488C11.8703 15.488 11.8683 15.488 11.8663 15.488C11.8644 15.488 11.8624 15.488 11.8604 15.488C11.8584 15.488 11.8564 15.488 11.8544 15.488C11.8524 15.488 11.8503 15.488 11.8483 15.488C11.8462 15.488 11.8442 15.488 11.8421 15.488C11.8401 15.488 11.838 15.488 11.8359 15.488C11.8338 15.488 11.8317 15.488 11.8296 15.488C11.8275 15.488 11.8254 15.488 11.8233 15.488C11.8212 15.488 11.819 15.488 11.8169 15.488C11.8147 15.488 11.8126 15.488 11.8104 15.488C11.8082 15.488 11.8061 15.488 11.8039 15.488C11.8017 15.488 11.7995 15.488 11.7973 15.488C11.7951 15.488 11.7928 15.488 11.7906 15.488C11.7884 15.488 11.7861 15.488 11.7839 15.488C11.7816 15.488 11.7794 15.488 11.7771 15.488C11.7748 15.488 11.7725 15.488 11.7702 15.488C11.768 15.488 11.7656 15.488 11.7633 15.488C11.761 15.488 11.7587 15.488 11.7564 15.488C11.754 15.488 11.7517 15.488 11.7493 15.488C11.747 15.488 11.7446 15.488 11.7422 15.488C11.7399 15.488 11.7375 15.488 11.7351 15.488C11.7327 15.488 11.7303 15.488 11.7279 15.488C11.7255 15.488 11.723 15.488 11.7206 15.488C11.7182 15.488 11.7157 15.488 11.7133 15.488C11.7108 15.488 11.7084 15.488 11.7059 15.488C11.7034 15.488 11.7009 15.488 11.6984 15.488C11.6959 15.488 11.6934 15.488 11.6909 15.488C11.6884 15.488 11.6859 15.488 11.6834 15.488C11.6808 15.488 11.6783 15.488 11.6757 15.488C11.6732 15.488 11.6706 15.488 11.6681 15.488C11.6655 15.488 11.6629 15.488 11.6603 15.488C11.6578 15.488 11.6552 15.488 11.6525 15.488C11.6499 15.488 11.6473 15.488 11.6447 15.488C11.6421 15.488 11.6394 15.488 11.6368 15.488C11.6342 15.488 11.6315 15.488 11.6288 15.488C11.6262 15.488 11.6235 15.488 11.6208 15.488C11.6182 15.488 11.6155 15.488 11.6128 15.488C11.6101 15.488 11.6074 15.488 11.6047 15.488C11.6019 15.488 11.5992 15.488 11.5965 15.488C11.5938 15.488 11.591 15.488 11.5883 15.488C11.5855 15.488 11.5828 15.488 11.58 15.488C11.5772 15.488 11.5744 15.488 11.5717 15.488C11.5689 15.488 11.5661 15.488 11.5633 15.488C11.5605 15.488 11.5577 15.488 11.5548 15.488C11.552 15.488 11.5492 15.488 11.5464 15.488C11.5435 15.488 11.5407 15.488 11.5378 15.488C11.535 15.488 11.5321 15.488 11.5292 15.488C11.5264 15.488 11.5235 15.488 11.5206 15.488C11.5177 15.488 11.5148 15.488 11.5119 15.488C11.509 15.488 11.5061 15.488 11.5032 15.488C11.5003 15.488 11.4973 15.488 11.4944 15.488C11.4915 15.488 11.4885 15.488 11.4856 15.488C11.4826 15.488 11.4796 15.488 11.4767 15.488C11.4737 15.488 11.4707 15.488 11.4677 15.488C11.4648 15.488 11.4618 15.488 11.4588 15.488C11.4558 15.488 11.4528 15.488 11.4497 15.488C11.4467 15.488 11.4437 15.488 11.4407 15.488C11.4376 15.488 11.4346 15.488 11.4315 15.488C11.4285 15.488 11.4254 15.488 11.4224 15.488C11.4193 15.488 11.4162 15.488 11.4132 15.488C11.4101 15.488 11.407 15.488 11.4039 15.488C11.4008 15.488 11.3977 15.488 11.3946 15.488C11.3915 15.488 11.3884 15.488 11.3853 15.488C11.3821 15.488 11.379 15.488 11.3759 15.488C11.3727 15.488 11.3696 15.488 11.3664 15.488C11.3633 15.488 11.3601 15.488 11.3569 15.488C11.3538 15.488 11.3506 15.488 11.3474 15.488C11.3442 15.488 11.341 15.488 11.3378 15.488C11.3347 15.488 11.3314 15.488 11.3282 15.488C11.325 15.488 11.3218 15.488 11.3186 15.488C11.3154 15.488 11.3121 15.488 11.3089 15.488C11.3057 15.488 11.3024 15.488 11.2992 15.488C11.2959 15.488 11.2926 15.488 11.2894 15.488C11.2861 15.488 11.2828 15.488 11.2796 15.488C11.2763 15.488 11.273 15.488 11.2697 15.488C11.2664 15.488 11.2631 15.488 11.2598 15.488C11.2565 15.488 11.2532 15.488 11.2499 15.488C11.2465 15.488 11.2432 15.488 11.2399 15.488C11.2365 15.488 11.2332 15.488 11.2299 15.488C11.2265 15.488 11.2232 15.488 11.2198 15.488C11.2164 15.488 11.2131 15.488 11.2097 15.488C11.2063 15.488 11.203 15.488 11.1996 15.488C11.1962 15.488 11.1928 15.488 11.1894 15.488C11.186 15.488 11.1826 15.488 11.1792 15.488C11.1758 15.488 11.1724 15.488 11.1689 15.488C11.1655 15.488 11.1621 15.488 11.1587 15.488C11.1552 15.488 11.1518 15.488 11.1483 15.488C11.1449 15.488 11.1414 15.488 11.138 15.488C11.1345 15.488 11.1311 15.488 11.1276 15.488C11.1241 15.488 11.1206 15.488 11.1172 15.488C11.1137 15.488 11.1102 15.488 11.1067 15.488C11.1032 15.488 11.0997 15.488 11.0962 15.488C11.0927 15.488 11.0892 15.488 11.0857 15.488C11.0822 15.488 11.0786 15.488 11.0751 15.488C11.0716 15.488 11.068 15.488 11.0645 15.488C11.061 15.488 11.0574 15.488 11.0539 15.488C11.0503 15.488 11.0468 15.488 11.0432 15.488C11.0397 15.488 11.0361 15.488 11.0325 15.488C11.0289 15.488 11.0254 15.488 11.0218 15.488C11.0182 15.488 11.0146 15.488 11.011 15.488C11.0074 15.488 11.0038 15.488 11.0002 15.488C10.9966 15.488 10.993 15.488 10.9894 15.488C10.9858 15.488 10.9822 15.488 10.9786 15.488C10.9749 15.488 10.9713 15.488 10.9677 15.488C10.964 15.488 10.9604 15.488 10.9568 15.488C10.9531 15.488 10.9495 15.488 10.9458 15.488C10.9422 15.488 10.9385 15.488 10.9349 15.488C10.9312 15.488 10.9275 15.488 10.9239 15.488C10.9202 15.488 10.9165 15.488 10.9128 15.488C10.9091 15.488 10.9055 15.488 10.9018 15.488C10.8981 15.488 10.8944 15.488 10.8907 15.488C10.887 15.488 10.8833 15.488 10.8796 15.488C10.8759 15.488 10.8721 15.488 10.8684 15.488C10.8647 15.488 10.861 15.488 10.8573 15.488C10.8535 15.488 10.8498 15.488 10.8461 15.488C10.8423 15.488 10.8386 15.488 10.8348 15.488C10.8311 15.488 10.8274 15.488 10.8236 15.488C10.8198 15.488 10.8161 15.488 10.8123 15.488C10.8086 15.488 10.8048 15.488 10.801 15.488C10.7973 15.488 10.7935 15.488 10.7897 15.488C10.7859 15.488 10.7822 15.488 10.7784 15.488C10.7746 15.488 10.7708 15.488 10.767 15.488C10.7632 15.488 10.7594 15.488 10.7556 15.488C10.7518 15.488 10.748 15.488 10.7442 15.488C10.7404 15.488 10.7366 15.488 10.7328 15.488C10.7289 15.488 10.7251 15.488 10.7213 15.488C10.7175 15.488 10.7137 15.488 10.7098 15.488C10.706 15.488 10.7022 15.488 10.6983 15.488C10.6945 15.488 10.6906 15.488 10.6868 15.488C10.683 15.488 10.6791 15.488 10.6753 15.488C10.6714 15.488 10.6675 15.488 10.6637 15.488C10.6598 15.488 10.656 15.488 10.6521 15.488C10.6482 15.488 10.6444 15.488 10.6405 15.488C10.6366 15.488 10.6327 15.488 10.6289 15.488C10.625 15.488 10.6211 15.488 10.6172 15.488C10.6133 15.488 10.6094 15.488 10.6056 15.488C10.6017 15.488 10.5978 15.488 10.5939 15.488C10.59 15.488 10.5861 15.488 10.5822 15.488C10.5783 15.488 10.5744 15.488 10.5705 15.488C10.5665 15.488 10.5626 15.488 10.5587 15.488C10.5548 15.488 10.5509 15.488 10.547 15.488C10.543 15.488 10.5391 15.488 10.5352 15.488C10.5313 15.488 10.5273 15.488 10.5234 15.488C10.5195 15.488 10.5155 15.488 10.5116 15.488C10.5077 15.488 10.5037 15.488 10.4998 15.488C10.4959 15.488 10.4919 15.488 10.488 15.488C10.484 15.488 10.4801 15.488 10.4761 15.488C10.4722 15.488 10.4682 15.488 10.4643 15.488C10.4603 15.488 10.4563 15.488 10.4524 15.488C10.4484 15.488 10.4445 15.488 10.4405 15.488C10.4365 15.488 10.4326 15.488 10.4286 15.488C10.4246 15.488 10.4206 15.488 10.4167 15.488C10.4127 15.488 10.4087 15.488 10.4047 15.488C10.4008 15.488 10.3968 15.488 10.3928 15.488C10.3888 15.488 10.3848 15.488 10.3808 15.488C10.3769 15.488 10.3729 15.488 10.3689 15.488C10.3649 15.488 10.3609 15.488 10.3569 15.488C10.3529 15.488 10.3489 15.488 10.3449 15.488C10.3409 15.488 10.3369 15.488 10.3329 15.488C10.3289 15.488 10.3249 15.488 10.3209 15.488C10.3169 15.488 10.3129 15.488 10.3089 15.488C10.3049 15.488 10.3009 15.488 10.2969 15.488C10.2928 15.488 10.2888 15.488 10.2848 15.488C10.2808 15.488 10.2768 15.488 10.2728 15.488C10.2688 15.488 10.2647 15.488 10.2607 15.488C10.2567 15.488 10.2527 15.488 10.2487 15.488C10.2446 15.488 10.2406 15.488 10.2366 15.488C10.2326 15.488 10.2285 15.488 10.2245 15.488C10.2205 15.488 10.2165 15.488 10.2124 15.488C10.2084 15.488 10.2044 15.488 10.2003 15.488C10.1963 15.488 10.1923 15.488 10.1882 15.488C10.1842 15.488 10.1802 15.488 10.1761 15.488C10.1721 15.488 10.1681 15.488 10.164 15.488C10.16 15.488 10.1559 15.488 10.1519 15.488C10.1479 15.488 10.1438 15.488 10.1398 15.488C10.1357 15.488 10.1317 15.488 10.1277 15.488C10.1236 15.488 10.1196 15.488 10.1155 15.488C10.1115 15.488 10.1074 15.488 10.1034 15.488C10.0994 15.488 10.0953 15.488 10.0913 15.488C10.0872 15.488 10.0832 15.488 10.0791 15.488C10.0751 15.488 10.071 15.488 10.067 15.488C10.0629 15.488 10.0589 15.488 10.0548 15.488C10.0508 15.488 10.0467 15.488 10.0427 15.488C10.0386 15.488 10.0346 15.488 10.0305 15.488C10.0265 15.488 10.0224 15.488 10.0184 15.488C10.0143 15.488 10.0103 15.488 10.0062 15.488C10.0022 15.488 9.99815 15.488 9.99409 15.488C9.99004 15.488 9.98599 15.488 9.98194 15.488C9.97789 15.488 9.97384 15.488 9.96979 15.488C9.96574 15.488 9.96169 15.488 9.95764 15.488C9.95359 15.488 9.94954 15.488 9.94549 15.488C9.94144 15.488 9.93739 15.488 9.93334 15.488C9.92929 15.488 9.92525 15.488 9.9212 15.488C9.91715 15.488 9.9131 15.488 9.90905 15.488C9.905 15.488 9.90096 15.488 9.89691 15.488C9.89286 15.488 9.88882 15.488 9.88477 15.488C9.88072 15.488 9.87668 15.488 9.87263 15.488C9.86859 15.488 9.86454 15.488 9.8605 15.488C9.85645 15.488 9.85241 15.488 9.84837 15.488C9.84433 15.488 9.84028 15.488 9.83624 15.488C9.8322 15.488 9.82816 15.488 9.82412 15.488C9.82008 15.488 9.81604 15.488 9.812 15.488C9.80797 15.488 9.80393 15.488 9.79989 15.488C9.79586 15.488 9.79182 15.488 9.78779 15.488C9.78375 15.488 9.77972 15.488 9.77569 15.488C9.77165 15.488 9.76762 15.488 9.76359 15.488C9.75956 15.488 9.75553 15.488 9.7515 15.488C9.74747 15.488 9.74345 15.488 9.73942 15.488C9.7354 15.488 9.73137 15.488 9.72735 15.488C9.72333 15.488 9.7193 15.488 9.71528 15.488C9.71126 15.488 9.70724 15.488 9.70323 15.488C9.69921 15.488 9.69519 15.488 9.69118 15.488C9.68716 15.488 9.68315 15.488 9.67913 15.488C9.67512 15.488 9.67111 15.488 9.6671 15.488C9.66309 15.488 9.65909 15.488 9.65508 15.488C9.65107 15.488 9.64707 15.488 9.64307 15.488C9.63906 15.488 9.63506 15.488 9.63106 15.488C9.62706 15.488 9.62307 15.488 9.61907 15.488C9.61508 15.488 9.61108 15.488 9.60709 15.488C9.6031 15.488 9.59911 15.488 9.59512 15.488C9.59113 15.488 9.58715 15.488 9.58316 15.488C9.57918 15.488 9.5752 15.488 9.57121 15.488C9.56723 15.488 9.56326 15.488 9.55928 15.488C9.5553 15.488 9.55133 15.488 9.54736 15.488C9.54339 15.488 9.53942 15.488 9.53545 15.488C9.53148 15.488 9.52752 15.488 9.52355 15.488C9.51959 15.488 9.51563 15.488 9.51167 15.488C9.50771 15.488 9.50376 15.488 9.4998 15.488C9.49585 15.488 9.4919 15.488 9.48795 15.488C9.484 15.488 9.48006 15.488 9.47611 15.488C9.47217 15.488 9.46823 15.488 9.46429 15.488C9.46035 15.488 9.45641 15.488 9.45248 15.488C9.44855 15.488 9.44462 15.488 9.44069 15.488C9.43676 15.488 9.43284 15.488 9.42891 15.488C9.42499 15.488 9.42107 15.488 9.41715 15.488C9.41324 15.488 9.40932 15.488 9.40541 15.488C9.4015 15.488 9.39759 15.488 9.39369 15.488C9.38978 15.488 9.38588 15.488 9.38198 15.488C9.37808 15.488 9.37418 15.488 9.37029 15.488C9.3664 15.488 9.3625 15.488 9.35862 15.488C9.35473 15.488 9.35085 15.488 9.34696 15.488C9.34308 15.488 9.33921 15.488 9.33533 15.488C9.33146 15.488 9.32759 15.488 9.32372 15.488C9.31985 15.488 9.31598 15.488 9.31212 15.488C9.30826 15.488 9.3044 15.488 9.30055 15.488C9.29669 15.488 9.29284 15.488 9.289 15.488C9.28515 15.488 9.2813 15.488 9.27746 15.488C9.27362 15.488 9.26978 15.488 9.26595 15.488C9.26212 15.488 9.25829 15.488 9.25446 15.488C9.25063 15.488 9.24681 15.488 9.24299 15.488C9.23917 15.488 9.23536 15.488 9.23155 15.488C9.22774 15.488 9.22393 15.488 9.22012 15.488C9.21632 15.488 9.21252 15.488 9.20872 15.488C9.20493 15.488 9.20113 15.488 9.19735 15.488C9.19356 15.488 9.18977 15.488 9.18599 15.488C9.18221 15.488 9.17844 15.488 9.17466 15.488C9.17089 15.488 9.16712 15.488 9.16336 15.488C9.1596 15.488 9.15583 15.488 9.15208 15.488C9.14832 15.488 9.14457 15.488 9.14082 15.488C9.13708 15.488 9.13333 15.488 9.12959 15.488C9.12586 15.488 9.12212 15.488 9.11839 15.488C9.11466 15.488 9.11094 15.488 9.10721 15.488C9.10349 15.488 9.09978 15.488 9.09606 15.488C9.09235 15.488 9.08864 15.488 9.08494 15.488C9.08124 15.488 9.07754 15.488 9.07384 15.488C9.07015 15.488 9.06646 15.488 9.06277 15.488C9.05909 15.488 9.05541 15.488 9.05173 15.488C9.04806 15.488 9.04439 15.488 9.04072 15.488C9.03706 15.488 9.03339 15.488 9.02974 15.488C9.02608 15.488 9.02243 15.488 9.01878 15.488C9.01514 15.488 9.01149 15.488 9.00786 15.488C9.00422 15.488 9.00059 15.488 8.99696 15.488C8.99333 15.488 8.98971 15.488 8.9861 15.488C8.98248 15.488 8.97887 15.488 8.97526 15.488C8.97165 15.488 8.96805 15.488 8.96446 15.488C8.96086 15.488 8.95727 15.488 8.95368 15.488C8.9501 15.488 8.94652 15.488 8.94294 15.488C8.93937 15.488 8.9358 15.488 8.93223 15.488C8.92867 15.488 8.92511 15.488 8.92156 15.488C8.918 15.488 8.91446 15.488 8.91091 15.488C8.90737 15.488 8.90383 15.488 8.9003 15.488C8.89677 15.488 8.89324 15.488 8.88972 15.488C8.8862 15.488 8.88269 15.488 8.87918 15.488C8.87567 15.488 8.87217 15.488 8.86867 15.488C8.86517 15.488 8.86168 15.488 8.85819 15.488C8.85471 15.488 8.85123 15.488 8.84775 15.488C8.84428 15.488 8.84081 15.488 8.83735 15.488C8.83388 15.488 8.83043 15.488 8.82698 15.488C8.82353 15.488 8.82008 15.488 8.81664 15.488C8.8132 15.488 8.80977 15.488 8.80634 15.488C8.80292 15.488 8.7995 15.488 8.79608 15.488C8.79267 15.488 8.78926 15.488 8.78586 15.488C8.78245 15.488 8.77906 15.488 8.77567 15.488C8.77228 15.488 8.7689 15.488 8.76552 15.488C8.76214 15.488 8.75877 15.488 8.75541 15.488C8.75204 15.488 8.74869 15.488 8.74533 15.488C8.74198 15.488 8.73864 15.488 8.7353 15.488C8.73196 15.488 8.72863 15.488 8.7253 15.488C8.72198 15.488 8.71866 15.488 8.71535 15.488C8.71204 15.488 8.70873 15.488 8.70543 15.488C8.70213 15.488 8.69884 15.488 8.69556 15.488C8.69227 15.488 8.68899 15.488 8.68572 15.488C8.68245 15.488 8.67918 15.488 8.67593 15.488C8.67267 15.488 8.66942 15.488 8.66617 15.488C8.66293 15.488 8.65969 15.488 8.65646 15.488C8.65323 15.488 8.65001 15.488 8.64679 15.488C8.64357 15.488 8.64036 15.488 8.63716 15.488C8.63396 15.488 8.63076 15.488 8.62758 15.488C8.62439 15.488 8.62121 15.488 8.61803 15.488C8.61486 15.488 8.61169 15.488 8.60854 15.488C8.60538 15.488 8.60223 15.488 8.59908 15.488C8.59594 15.488 8.5928 15.488 8.58967 15.488C8.58654 15.488 8.58342 15.488 8.5803 15.488C8.57719 15.488 8.57408 15.488 8.57098 15.488C8.56788 15.488 8.56479 15.488 8.56171 15.488C8.55862 15.488 8.55554 15.488 8.55247 15.488C8.54941 15.488 8.54634 15.488 8.54329 15.488C8.54024 15.488 8.53719 15.488 8.53415 15.488C8.53111 15.488 8.52808 15.488 8.52506 15.488C8.52204 15.488 8.51902 15.488 8.51601 15.488C8.51301 15.488 8.51001 15.488 8.50701 15.488C8.50402 15.488 8.50104 15.488 8.49806 15.488C8.49509 15.488 8.49212 15.488 8.48916 15.488C8.4862 15.488 8.48325 15.488 8.48031 15.488C8.47737 15.488 8.47443 15.488 8.4715 15.488C8.46858 15.488 8.46566 15.488 8.46275 15.488C8.45984 15.488 8.45693 15.488 8.45404 15.488C8.45115 15.488 8.44826 15.488 8.44538 15.488C8.44251 15.488 8.43964 15.488 8.43678 15.488C8.43392 15.488 8.43106 15.488 8.42822 15.488C8.42538 15.488 8.42254 15.488 8.41971 15.488C8.41689 15.488 8.41407 15.488 8.41126 15.488C8.40845 15.488 8.40565 15.488 8.40286 15.488C8.40007 15.488 8.39728 15.488 8.39451 15.488C8.39173 15.488 8.38897 15.488 8.38621 15.488C8.38345 15.488 8.3807 15.488 8.37796 15.488C8.37522 15.488 8.37249 15.488 8.36977 15.488C8.36705 15.488 8.36434 15.488 8.36163 15.488C8.35893 15.488 8.35623 15.488 8.35355 15.488C8.35086 15.488 8.34818 15.488 8.34552 15.488C8.34285 15.488 8.34019 15.488 8.33754 15.488C8.33489 15.488 8.33225 15.488 8.32962 15.488C8.32699 15.488 8.32436 15.488 8.32175 15.488C8.31914 15.488 8.31653 15.488 8.31394 15.488C8.31134 15.488 8.30876 15.488 8.30618 15.488C8.30361 15.488 8.30104 15.488 8.29848 15.488C8.29593 15.488 8.29338 15.488 8.29084 15.488C8.2883 15.488 8.28578 15.488 8.28326 15.488C8.28074 15.488 8.27823 15.488 8.27573 15.488C8.27323 15.488 8.27074 15.488 8.26826 15.488C8.26578 15.488 8.26331 15.488 8.26084 15.488C8.25838 15.488 8.25593 15.488 8.25349 15.488C8.25105 15.488 8.24862 15.488 8.24619 15.488C8.24377 15.488 8.24136 15.488 8.23896 15.488C8.23656 15.488 8.23416 15.488 8.23178 15.488C8.2294 15.488 8.22703 15.488 8.22466 15.488C8.2223 15.488 8.21995 15.488 8.21761 15.488C8.21527 15.488 8.21293 15.488 8.21061 15.488C8.20829 15.488 8.20598 15.488 8.20368 15.488C8.20137 15.488 8.19908 15.488 8.1968 15.488C8.19452 15.488 8.19225 15.488 8.18999 15.488C8.18773 15.488 8.18548 15.488 8.18324 15.488C8.181 15.488 8.17877 15.488 8.17655 15.488C8.17433 15.488 8.17212 15.488 8.16992 15.488C8.16773 15.488 8.16554 15.488 8.16336 15.488C8.16118 15.488 8.15902 15.488 8.15686 15.488C8.15471 15.488 8.15256 15.488 8.15043 15.488C8.14829 15.488 8.14617 15.488 8.14406 15.488C8.14194 15.488 8.13984 15.488 8.13775 15.488C8.13566 15.488 8.13358 15.488 8.13151 15.488C8.12944 15.488 8.12738 15.488 8.12533 15.488C8.12328 15.488 8.12124 15.488 8.11922 15.488C8.11719 15.488 8.11518 15.488 8.11317 15.488C8.11117 15.488 8.10918 15.488 8.10719 15.488C8.10521 15.488 8.10324 15.488 8.10128 15.488C8.09932 15.488 8.09737 15.488 8.09544 15.488C8.0935 15.488 8.09157 15.488 8.08966 15.488C8.08774 15.488 8.08584 15.488 8.08395 15.488C8.08206 15.488 8.08017 15.488 8.0783 15.488C8.07644 15.488 8.07458 15.488 8.07273 15.488C8.07088 15.488 8.06905 15.488 8.06723 15.488C8.0654 15.488 8.06359 15.488 8.06179 15.488C8.05999 15.488 8.0582 15.488 8.05642 15.488C8.05465 15.488 8.05288 15.488 8.05113 15.488C8.04937 15.488 8.04763 15.488 8.0459 15.488C8.04417 15.488 8.04245 15.488 8.04074 15.488C8.03904 15.488 8.03734 15.488 8.03566 15.488C8.03397 15.488 8.0323 15.488 8.03064 15.488C8.02898 15.488 8.02734 15.488 8.0257 15.488C8.02407 15.488 8.02244 15.488 8.02083 15.488C8.01922 15.488 8.01762 15.488 8.01603 15.488C8.01444 15.488 8.01287 15.488 8.01131 15.488C8.00974 15.488 8.00819 15.488 8.00665 15.488C8.00512 15.488 8.00359 15.488 8.00208 15.488C8.00056 15.488 7.99906 15.488 7.99757 15.488C7.99608 15.488 7.9946 15.488 7.99314 15.488C7.99167 15.488 7.99022 15.488 7.98878 15.488C7.98734 15.488 7.98592 15.488 7.9845 15.488C7.98309 15.488 7.98168 15.488 7.98029 15.488C7.9789 15.488 7.97753 15.488 7.97616 15.488C7.9748 15.488 7.97345 15.488 7.97211 15.488C7.97077 15.488 7.96944 15.488 7.96813 15.488C7.96682 15.488 7.96552 15.488 7.96423 15.488C7.96294 15.488 7.96166 15.488 7.9604 15.488C7.95914 15.488 7.95789 15.488 7.95665 15.488C7.95542 15.488 7.95419 15.488 7.95298 15.488C7.95177 15.488 7.95058 15.488 7.94939 15.488C7.94821 15.488 7.94704 15.488 7.94588 15.488C7.94472 15.488 7.94358 15.488 7.94244 15.488C7.94131 15.488 7.94019 15.488 7.93909 15.488C7.93798 15.488 7.93689 15.488 7.93581 15.488C7.93473 15.488 7.93367 15.488 7.93261 15.488C7.93156 15.488 7.93052 15.488 7.9295 15.488C7.92847 15.488 7.92746 15.488 7.92646 15.488C7.92546 15.488 7.92448 15.488 7.92351 15.488C7.92254 15.488 7.92158 15.488 7.92063 15.488C7.91969 15.488 7.91876 15.488 7.91784 15.488C7.91693 15.488 7.91602 15.488 7.91513 15.488C7.91424 15.488 7.91337 15.488 7.91251 15.488C7.91164 15.488 7.9108 15.488 7.90996 15.488C7.90913 15.488 7.90831 15.488 7.9075 15.488C7.90669 15.488 7.9059 15.488 7.90512 15.488C7.90434 15.488 7.90358 15.488 7.90283 15.488C7.90207 15.488 7.90134 15.488 7.90062 15.488C7.89989 15.488 7.89918 15.488 7.89849 15.488C7.89779 15.488 7.89711 15.488 7.89645 15.488C7.89578 15.488 7.89513 15.488 7.89449 15.488C7.89385 15.488 7.89323 15.488 7.89262 15.488C7.89201 15.488 7.89142 15.488 7.89084 15.488C7.89026 15.488 7.88969 15.488 7.88914 15.488C7.88859 15.488 7.88805 15.488 7.88753 15.488C7.88701 15.488 7.8865 15.488 7.886 15.488C7.88551 15.488 7.88503 15.488 7.88457 15.488C7.8841 15.488 7.88365 15.488 7.88322 15.488C7.88278 15.488 7.88236 15.488 7.88196 15.488C7.88155 15.488 7.88116 15.488 7.88078 15.488C7.88041 15.488 7.88004 15.488 7.8797 15.488C7.87935 15.488 7.87902 15.488 7.8787 15.488C7.87839 15.488 7.87809 15.488 7.8778 15.488V16.088V16.688C7.87809 16.688 7.87839 16.688 7.8787 16.688C7.87902 16.688 7.87935 16.688 7.8797 16.688C7.88004 16.688 7.88041 16.688 7.88078 16.688C7.88116 16.688 7.88155 16.688 7.88196 16.688C7.88236 16.688 7.88278 16.688 7.88322 16.688C7.88365 16.688 7.8841 16.688 7.88457 16.688C7.88503 16.688 7.88551 16.688 7.886 16.688C7.8865 16.688 7.88701 16.688 7.88753 16.688C7.88805 16.688 7.88859 16.688 7.88914 16.688C7.88969 16.688 7.89026 16.688 7.89084 16.688C7.89142 16.688 7.89201 16.688 7.89262 16.688C7.89323 16.688 7.89385 16.688 7.89449 16.688C7.89513 16.688 7.89578 16.688 7.89645 16.688C7.89711 16.688 7.89779 16.688 7.89849 16.688C7.89918 16.688 7.89989 16.688 7.90062 16.688C7.90134 16.688 7.90207 16.688 7.90283 16.688C7.90358 16.688 7.90434 16.688 7.90512 16.688C7.9059 16.688 7.90669 16.688 7.9075 16.688C7.90831 16.688 7.90913 16.688 7.90996 16.688C7.9108 16.688 7.91164 16.688 7.91251 16.688C7.91337 16.688 7.91424 16.688 7.91513 16.688C7.91602 16.688 7.91693 16.688 7.91784 16.688C7.91876 16.688 7.91969 16.688 7.92063 16.688C7.92158 16.688 7.92254 16.688 7.92351 16.688C7.92448 16.688 7.92546 16.688 7.92646 16.688C7.92746 16.688 7.92847 16.688 7.9295 16.688C7.93052 16.688 7.93156 16.688 7.93261 16.688C7.93367 16.688 7.93473 16.688 7.93581 16.688C7.93689 16.688 7.93798 16.688 7.93909 16.688C7.94019 16.688 7.94131 16.688 7.94244 16.688C7.94358 16.688 7.94472 16.688 7.94588 16.688C7.94704 16.688 7.94821 16.688 7.94939 16.688C7.95058 16.688 7.95177 16.688 7.95298 16.688C7.95419 16.688 7.95542 16.688 7.95665 16.688C7.95789 16.688 7.95914 16.688 7.9604 16.688C7.96166 16.688 7.96294 16.688 7.96423 16.688C7.96552 16.688 7.96682 16.688 7.96813 16.688C7.96944 16.688 7.97077 16.688 7.97211 16.688C7.97345 16.688 7.9748 16.688 7.97616 16.688C7.97753 16.688 7.9789 16.688 7.98029 16.688C7.98168 16.688 7.98309 16.688 7.9845 16.688C7.98592 16.688 7.98734 16.688 7.98878 16.688C7.99022 16.688 7.99167 16.688 7.99314 16.688C7.9946 16.688 7.99608 16.688 7.99757 16.688C7.99906 16.688 8.00056 16.688 8.00208 16.688C8.00359 16.688 8.00512 16.688 8.00665 16.688C8.00819 16.688 8.00974 16.688 8.01131 16.688C8.01287 16.688 8.01444 16.688 8.01603 16.688C8.01762 16.688 8.01922 16.688 8.02083 16.688C8.02244 16.688 8.02407 16.688 8.0257 16.688C8.02734 16.688 8.02898 16.688 8.03064 16.688C8.0323 16.688 8.03397 16.688 8.03566 16.688C8.03734 16.688 8.03904 16.688 8.04074 16.688C8.04245 16.688 8.04417 16.688 8.0459 16.688C8.04763 16.688 8.04937 16.688 8.05113 16.688C8.05288 16.688 8.05465 16.688 8.05642 16.688C8.0582 16.688 8.05999 16.688 8.06179 16.688C8.06359 16.688 8.0654 16.688 8.06723 16.688C8.06905 16.688 8.07088 16.688 8.07273 16.688C8.07458 16.688 8.07644 16.688 8.0783 16.688C8.08017 16.688 8.08206 16.688 8.08395 16.688C8.08584 16.688 8.08774 16.688 8.08966 16.688C8.09157 16.688 8.0935 16.688 8.09544 16.688C8.09737 16.688 8.09932 16.688 8.10128 16.688C8.10324 16.688 8.10521 16.688 8.10719 16.688C8.10918 16.688 8.11117 16.688 8.11317 16.688C8.11518 16.688 8.11719 16.688 8.11922 16.688C8.12124 16.688 8.12328 16.688 8.12533 16.688C8.12738 16.688 8.12944 16.688 8.13151 16.688C8.13358 16.688 8.13566 16.688 8.13775 16.688C8.13984 16.688 8.14194 16.688 8.14406 16.688C8.14617 16.688 8.14829 16.688 8.15043 16.688C8.15256 16.688 8.15471 16.688 8.15686 16.688C8.15902 16.688 8.16118 16.688 8.16336 16.688C8.16554 16.688 8.16773 16.688 8.16992 16.688C8.17212 16.688 8.17433 16.688 8.17655 16.688C8.17877 16.688 8.181 16.688 8.18324 16.688C8.18548 16.688 8.18773 16.688 8.18999 16.688C8.19225 16.688 8.19452 16.688 8.1968 16.688C8.19908 16.688 8.20137 16.688 8.20368 16.688C8.20598 16.688 8.20829 16.688 8.21061 16.688C8.21293 16.688 8.21527 16.688 8.21761 16.688C8.21995 16.688 8.2223 16.688 8.22466 16.688C8.22703 16.688 8.2294 16.688 8.23178 16.688C8.23416 16.688 8.23656 16.688 8.23896 16.688C8.24136 16.688 8.24377 16.688 8.24619 16.688C8.24862 16.688 8.25105 16.688 8.25349 16.688C8.25593 16.688 8.25838 16.688 8.26084 16.688C8.26331 16.688 8.26578 16.688 8.26826 16.688C8.27074 16.688 8.27323 16.688 8.27573 16.688C8.27823 16.688 8.28074 16.688 8.28326 16.688C8.28578 16.688 8.2883 16.688 8.29084 16.688C8.29338 16.688 8.29593 16.688 8.29848 16.688C8.30104 16.688 8.30361 16.688 8.30618 16.688C8.30876 16.688 8.31134 16.688 8.31394 16.688C8.31653 16.688 8.31914 16.688 8.32175 16.688C8.32436 16.688 8.32699 16.688 8.32962 16.688C8.33225 16.688 8.33489 16.688 8.33754 16.688C8.34019 16.688 8.34285 16.688 8.34552 16.688C8.34818 16.688 8.35086 16.688 8.35355 16.688C8.35623 16.688 8.35893 16.688 8.36163 16.688C8.36434 16.688 8.36705 16.688 8.36977 16.688C8.37249 16.688 8.37522 16.688 8.37796 16.688C8.3807 16.688 8.38345 16.688 8.38621 16.688C8.38897 16.688 8.39173 16.688 8.39451 16.688C8.39728 16.688 8.40007 16.688 8.40286 16.688C8.40565 16.688 8.40845 16.688 8.41126 16.688C8.41407 16.688 8.41689 16.688 8.41971 16.688C8.42254 16.688 8.42538 16.688 8.42822 16.688C8.43106 16.688 8.43392 16.688 8.43678 16.688C8.43964 16.688 8.44251 16.688 8.44538 16.688C8.44826 16.688 8.45115 16.688 8.45404 16.688C8.45693 16.688 8.45984 16.688 8.46275 16.688C8.46566 16.688 8.46858 16.688 8.4715 16.688C8.47443 16.688 8.47737 16.688 8.48031 16.688C8.48325 16.688 8.4862 16.688 8.48916 16.688C8.49212 16.688 8.49509 16.688 8.49806 16.688C8.50104 16.688 8.50402 16.688 8.50701 16.688C8.51001 16.688 8.51301 16.688 8.51601 16.688C8.51902 16.688 8.52204 16.688 8.52506 16.688C8.52808 16.688 8.53111 16.688 8.53415 16.688C8.53719 16.688 8.54024 16.688 8.54329 16.688C8.54634 16.688 8.54941 16.688 8.55247 16.688C8.55554 16.688 8.55862 16.688 8.56171 16.688C8.56479 16.688 8.56788 16.688 8.57098 16.688C8.57408 16.688 8.57719 16.688 8.5803 16.688C8.58342 16.688 8.58654 16.688 8.58967 16.688C8.5928 16.688 8.59594 16.688 8.59908 16.688C8.60223 16.688 8.60538 16.688 8.60854 16.688C8.61169 16.688 8.61486 16.688 8.61803 16.688C8.62121 16.688 8.62439 16.688 8.62758 16.688C8.63076 16.688 8.63396 16.688 8.63716 16.688C8.64036 16.688 8.64357 16.688 8.64679 16.688C8.65001 16.688 8.65323 16.688 8.65646 16.688C8.65969 16.688 8.66293 16.688 8.66617 16.688C8.66942 16.688 8.67267 16.688 8.67593 16.688C8.67918 16.688 8.68245 16.688 8.68572 16.688C8.68899 16.688 8.69227 16.688 8.69556 16.688C8.69884 16.688 8.70213 16.688 8.70543 16.688C8.70873 16.688 8.71204 16.688 8.71535 16.688C8.71866 16.688 8.72198 16.688 8.7253 16.688C8.72863 16.688 8.73196 16.688 8.7353 16.688C8.73864 16.688 8.74198 16.688 8.74533 16.688C8.74869 16.688 8.75204 16.688 8.75541 16.688C8.75877 16.688 8.76214 16.688 8.76552 16.688C8.7689 16.688 8.77228 16.688 8.77567 16.688C8.77906 16.688 8.78245 16.688 8.78586 16.688C8.78926 16.688 8.79267 16.688 8.79608 16.688C8.7995 16.688 8.80292 16.688 8.80634 16.688C8.80977 16.688 8.8132 16.688 8.81664 16.688C8.82008 16.688 8.82353 16.688 8.82698 16.688C8.83043 16.688 8.83388 16.688 8.83735 16.688C8.84081 16.688 8.84428 16.688 8.84775 16.688C8.85123 16.688 8.85471 16.688 8.85819 16.688C8.86168 16.688 8.86517 16.688 8.86867 16.688C8.87217 16.688 8.87567 16.688 8.87918 16.688C8.88269 16.688 8.8862 16.688 8.88972 16.688C8.89324 16.688 8.89677 16.688 8.9003 16.688C8.90383 16.688 8.90737 16.688 8.91091 16.688C8.91446 16.688 8.918 16.688 8.92156 16.688C8.92511 16.688 8.92867 16.688 8.93223 16.688C8.9358 16.688 8.93937 16.688 8.94294 16.688C8.94652 16.688 8.9501 16.688 8.95368 16.688C8.95727 16.688 8.96086 16.688 8.96446 16.688C8.96805 16.688 8.97165 16.688 8.97526 16.688C8.97887 16.688 8.98248 16.688 8.9861 16.688C8.98971 16.688 8.99333 16.688 8.99696 16.688C9.00059 16.688 9.00422 16.688 9.00786 16.688C9.01149 16.688 9.01514 16.688 9.01878 16.688C9.02243 16.688 9.02608 16.688 9.02974 16.688C9.03339 16.688 9.03706 16.688 9.04072 16.688C9.04439 16.688 9.04806 16.688 9.05173 16.688C9.05541 16.688 9.05909 16.688 9.06277 16.688C9.06646 16.688 9.07015 16.688 9.07384 16.688C9.07754 16.688 9.08124 16.688 9.08494 16.688C9.08864 16.688 9.09235 16.688 9.09606 16.688C9.09978 16.688 9.10349 16.688 9.10721 16.688C9.11094 16.688 9.11466 16.688 9.11839 16.688C9.12212 16.688 9.12586 16.688 9.12959 16.688C9.13333 16.688 9.13708 16.688 9.14082 16.688C9.14457 16.688 9.14832 16.688 9.15208 16.688C9.15583 16.688 9.1596 16.688 9.16336 16.688C9.16712 16.688 9.17089 16.688 9.17466 16.688C9.17844 16.688 9.18221 16.688 9.18599 16.688C9.18977 16.688 9.19356 16.688 9.19735 16.688C9.20113 16.688 9.20493 16.688 9.20872 16.688C9.21252 16.688 9.21632 16.688 9.22012 16.688C9.22393 16.688 9.22774 16.688 9.23155 16.688C9.23536 16.688 9.23917 16.688 9.24299 16.688C9.24681 16.688 9.25063 16.688 9.25446 16.688C9.25829 16.688 9.26212 16.688 9.26595 16.688C9.26978 16.688 9.27362 16.688 9.27746 16.688C9.2813 16.688 9.28515 16.688 9.289 16.688C9.29284 16.688 9.29669 16.688 9.30055 16.688C9.3044 16.688 9.30826 16.688 9.31212 16.688C9.31598 16.688 9.31985 16.688 9.32372 16.688C9.32759 16.688 9.33146 16.688 9.33533 16.688C9.33921 16.688 9.34308 16.688 9.34696 16.688C9.35085 16.688 9.35473 16.688 9.35862 16.688C9.3625 16.688 9.3664 16.688 9.37029 16.688C9.37418 16.688 9.37808 16.688 9.38198 16.688C9.38588 16.688 9.38978 16.688 9.39369 16.688C9.39759 16.688 9.4015 16.688 9.40541 16.688C9.40932 16.688 9.41324 16.688 9.41715 16.688C9.42107 16.688 9.42499 16.688 9.42891 16.688C9.43284 16.688 9.43676 16.688 9.44069 16.688C9.44462 16.688 9.44855 16.688 9.45248 16.688C9.45641 16.688 9.46035 16.688 9.46429 16.688C9.46823 16.688 9.47217 16.688 9.47611 16.688C9.48006 16.688 9.484 16.688 9.48795 16.688C9.4919 16.688 9.49585 16.688 9.4998 16.688C9.50376 16.688 9.50771 16.688 9.51167 16.688C9.51563 16.688 9.51959 16.688 9.52355 16.688C9.52752 16.688 9.53148 16.688 9.53545 16.688C9.53942 16.688 9.54339 16.688 9.54736 16.688C9.55133 16.688 9.5553 16.688 9.55928 16.688C9.56326 16.688 9.56723 16.688 9.57121 16.688C9.5752 16.688 9.57918 16.688 9.58316 16.688C9.58715 16.688 9.59113 16.688 9.59512 16.688C9.59911 16.688 9.6031 16.688 9.60709 16.688C9.61108 16.688 9.61508 16.688 9.61907 16.688C9.62307 16.688 9.62706 16.688 9.63106 16.688C9.63506 16.688 9.63906 16.688 9.64307 16.688C9.64707 16.688 9.65107 16.688 9.65508 16.688C9.65909 16.688 9.66309 16.688 9.6671 16.688C9.67111 16.688 9.67512 16.688 9.67913 16.688C9.68315 16.688 9.68716 16.688 9.69118 16.688C9.69519 16.688 9.69921 16.688 9.70323 16.688C9.70724 16.688 9.71126 16.688 9.71528 16.688C9.7193 16.688 9.72333 16.688 9.72735 16.688C9.73137 16.688 9.7354 16.688 9.73942 16.688C9.74345 16.688 9.74747 16.688 9.7515 16.688C9.75553 16.688 9.75956 16.688 9.76359 16.688C9.76762 16.688 9.77165 16.688 9.77569 16.688C9.77972 16.688 9.78375 16.688 9.78779 16.688C9.79182 16.688 9.79586 16.688 9.79989 16.688C9.80393 16.688 9.80797 16.688 9.812 16.688C9.81604 16.688 9.82008 16.688 9.82412 16.688C9.82816 16.688 9.8322 16.688 9.83624 16.688C9.84028 16.688 9.84433 16.688 9.84837 16.688C9.85241 16.688 9.85645 16.688 9.8605 16.688C9.86454 16.688 9.86859 16.688 9.87263 16.688C9.87668 16.688 9.88072 16.688 9.88477 16.688C9.88882 16.688 9.89286 16.688 9.89691 16.688C9.90096 16.688 9.905 16.688 9.90905 16.688C9.9131 16.688 9.91715 16.688 9.9212 16.688C9.92525 16.688 9.92929 16.688 9.93334 16.688C9.93739 16.688 9.94144 16.688 9.94549 16.688C9.94954 16.688 9.95359 16.688 9.95764 16.688C9.96169 16.688 9.96574 16.688 9.96979 16.688C9.97384 16.688 9.97789 16.688 9.98194 16.688C9.98599 16.688 9.99004 16.688 9.99409 16.688C9.99815 16.688 10.0022 16.688 10.0062 16.688C10.0103 16.688 10.0143 16.688 10.0184 16.688C10.0224 16.688 10.0265 16.688 10.0305 16.688C10.0346 16.688 10.0386 16.688 10.0427 16.688C10.0467 16.688 10.0508 16.688 10.0548 16.688C10.0589 16.688 10.0629 16.688 10.067 16.688C10.071 16.688 10.0751 16.688 10.0791 16.688C10.0832 16.688 10.0872 16.688 10.0913 16.688C10.0953 16.688 10.0994 16.688 10.1034 16.688C10.1074 16.688 10.1115 16.688 10.1155 16.688C10.1196 16.688 10.1236 16.688 10.1277 16.688C10.1317 16.688 10.1357 16.688 10.1398 16.688C10.1438 16.688 10.1479 16.688 10.1519 16.688C10.1559 16.688 10.16 16.688 10.164 16.688C10.1681 16.688 10.1721 16.688 10.1761 16.688C10.1802 16.688 10.1842 16.688 10.1882 16.688C10.1923 16.688 10.1963 16.688 10.2003 16.688C10.2044 16.688 10.2084 16.688 10.2124 16.688C10.2165 16.688 10.2205 16.688 10.2245 16.688C10.2285 16.688 10.2326 16.688 10.2366 16.688C10.2406 16.688 10.2446 16.688 10.2487 16.688C10.2527 16.688 10.2567 16.688 10.2607 16.688C10.2647 16.688 10.2688 16.688 10.2728 16.688C10.2768 16.688 10.2808 16.688 10.2848 16.688C10.2888 16.688 10.2928 16.688 10.2969 16.688C10.3009 16.688 10.3049 16.688 10.3089 16.688C10.3129 16.688 10.3169 16.688 10.3209 16.688C10.3249 16.688 10.3289 16.688 10.3329 16.688C10.3369 16.688 10.3409 16.688 10.3449 16.688C10.3489 16.688 10.3529 16.688 10.3569 16.688C10.3609 16.688 10.3649 16.688 10.3689 16.688C10.3729 16.688 10.3769 16.688 10.3808 16.688C10.3848 16.688 10.3888 16.688 10.3928 16.688C10.3968 16.688 10.4008 16.688 10.4047 16.688C10.4087 16.688 10.4127 16.688 10.4167 16.688C10.4206 16.688 10.4246 16.688 10.4286 16.688C10.4326 16.688 10.4365 16.688 10.4405 16.688C10.4445 16.688 10.4484 16.688 10.4524 16.688C10.4563 16.688 10.4603 16.688 10.4643 16.688C10.4682 16.688 10.4722 16.688 10.4761 16.688C10.4801 16.688 10.484 16.688 10.488 16.688C10.4919 16.688 10.4959 16.688 10.4998 16.688C10.5037 16.688 10.5077 16.688 10.5116 16.688C10.5155 16.688 10.5195 16.688 10.5234 16.688C10.5273 16.688 10.5313 16.688 10.5352 16.688C10.5391 16.688 10.543 16.688 10.547 16.688C10.5509 16.688 10.5548 16.688 10.5587 16.688C10.5626 16.688 10.5665 16.688 10.5705 16.688C10.5744 16.688 10.5783 16.688 10.5822 16.688C10.5861 16.688 10.59 16.688 10.5939 16.688C10.5978 16.688 10.6017 16.688 10.6056 16.688C10.6094 16.688 10.6133 16.688 10.6172 16.688C10.6211 16.688 10.625 16.688 10.6289 16.688C10.6327 16.688 10.6366 16.688 10.6405 16.688C10.6444 16.688 10.6482 16.688 10.6521 16.688C10.656 16.688 10.6598 16.688 10.6637 16.688C10.6675 16.688 10.6714 16.688 10.6753 16.688C10.6791 16.688 10.683 16.688 10.6868 16.688C10.6906 16.688 10.6945 16.688 10.6983 16.688C10.7022 16.688 10.706 16.688 10.7098 16.688C10.7137 16.688 10.7175 16.688 10.7213 16.688C10.7251 16.688 10.7289 16.688 10.7328 16.688C10.7366 16.688 10.7404 16.688 10.7442 16.688C10.748 16.688 10.7518 16.688 10.7556 16.688C10.7594 16.688 10.7632 16.688 10.767 16.688C10.7708 16.688 10.7746 16.688 10.7784 16.688C10.7822 16.688 10.7859 16.688 10.7897 16.688C10.7935 16.688 10.7973 16.688 10.801 16.688C10.8048 16.688 10.8086 16.688 10.8123 16.688C10.8161 16.688 10.8198 16.688 10.8236 16.688C10.8274 16.688 10.8311 16.688 10.8348 16.688C10.8386 16.688 10.8423 16.688 10.8461 16.688C10.8498 16.688 10.8535 16.688 10.8573 16.688C10.861 16.688 10.8647 16.688 10.8684 16.688C10.8721 16.688 10.8759 16.688 10.8796 16.688C10.8833 16.688 10.887 16.688 10.8907 16.688C10.8944 16.688 10.8981 16.688 10.9018 16.688C10.9055 16.688 10.9091 16.688 10.9128 16.688C10.9165 16.688 10.9202 16.688 10.9239 16.688C10.9275 16.688 10.9312 16.688 10.9349 16.688C10.9385 16.688 10.9422 16.688 10.9458 16.688C10.9495 16.688 10.9531 16.688 10.9568 16.688C10.9604 16.688 10.964 16.688 10.9677 16.688C10.9713 16.688 10.9749 16.688 10.9786 16.688C10.9822 16.688 10.9858 16.688 10.9894 16.688C10.993 16.688 10.9966 16.688 11.0002 16.688C11.0038 16.688 11.0074 16.688 11.011 16.688C11.0146 16.688 11.0182 16.688 11.0218 16.688C11.0254 16.688 11.0289 16.688 11.0325 16.688C11.0361 16.688 11.0397 16.688 11.0432 16.688C11.0468 16.688 11.0503 16.688 11.0539 16.688C11.0574 16.688 11.061 16.688 11.0645 16.688C11.068 16.688 11.0716 16.688 11.0751 16.688C11.0786 16.688 11.0822 16.688 11.0857 16.688C11.0892 16.688 11.0927 16.688 11.0962 16.688C11.0997 16.688 11.1032 16.688 11.1067 16.688C11.1102 16.688 11.1137 16.688 11.1172 16.688C11.1206 16.688 11.1241 16.688 11.1276 16.688C11.1311 16.688 11.1345 16.688 11.138 16.688C11.1414 16.688 11.1449 16.688 11.1483 16.688C11.1518 16.688 11.1552 16.688 11.1587 16.688C11.1621 16.688 11.1655 16.688 11.1689 16.688C11.1724 16.688 11.1758 16.688 11.1792 16.688C11.1826 16.688 11.186 16.688 11.1894 16.688C11.1928 16.688 11.1962 16.688 11.1996 16.688C11.203 16.688 11.2063 16.688 11.2097 16.688C11.2131 16.688 11.2164 16.688 11.2198 16.688C11.2232 16.688 11.2265 16.688 11.2299 16.688C11.2332 16.688 11.2365 16.688 11.2399 16.688C11.2432 16.688 11.2465 16.688 11.2499 16.688C11.2532 16.688 11.2565 16.688 11.2598 16.688C11.2631 16.688 11.2664 16.688 11.2697 16.688C11.273 16.688 11.2763 16.688 11.2796 16.688C11.2828 16.688 11.2861 16.688 11.2894 16.688C11.2926 16.688 11.2959 16.688 11.2992 16.688C11.3024 16.688 11.3057 16.688 11.3089 16.688C11.3121 16.688 11.3154 16.688 11.3186 16.688C11.3218 16.688 11.325 16.688 11.3282 16.688C11.3314 16.688 11.3347 16.688 11.3378 16.688C11.341 16.688 11.3442 16.688 11.3474 16.688C11.3506 16.688 11.3538 16.688 11.3569 16.688C11.3601 16.688 11.3633 16.688 11.3664 16.688C11.3696 16.688 11.3727 16.688 11.3759 16.688C11.379 16.688 11.3821 16.688 11.3853 16.688C11.3884 16.688 11.3915 16.688 11.3946 16.688C11.3977 16.688 11.4008 16.688 11.4039 16.688C11.407 16.688 11.4101 16.688 11.4132 16.688C11.4162 16.688 11.4193 16.688 11.4224 16.688C11.4254 16.688 11.4285 16.688 11.4315 16.688C11.4346 16.688 11.4376 16.688 11.4407 16.688C11.4437 16.688 11.4467 16.688 11.4497 16.688C11.4528 16.688 11.4558 16.688 11.4588 16.688C11.4618 16.688 11.4648 16.688 11.4677 16.688C11.4707 16.688 11.4737 16.688 11.4767 16.688C11.4796 16.688 11.4826 16.688 11.4856 16.688C11.4885 16.688 11.4915 16.688 11.4944 16.688C11.4973 16.688 11.5003 16.688 11.5032 16.688C11.5061 16.688 11.509 16.688 11.5119 16.688C11.5148 16.688 11.5177 16.688 11.5206 16.688C11.5235 16.688 11.5264 16.688 11.5292 16.688C11.5321 16.688 11.535 16.688 11.5378 16.688C11.5407 16.688 11.5435 16.688 11.5464 16.688C11.5492 16.688 11.552 16.688 11.5548 16.688C11.5577 16.688 11.5605 16.688 11.5633 16.688C11.5661 16.688 11.5689 16.688 11.5717 16.688C11.5744 16.688 11.5772 16.688 11.58 16.688C11.5828 16.688 11.5855 16.688 11.5883 16.688C11.591 16.688 11.5938 16.688 11.5965 16.688C11.5992 16.688 11.6019 16.688 11.6047 16.688C11.6074 16.688 11.6101 16.688 11.6128 16.688C11.6155 16.688 11.6182 16.688 11.6208 16.688C11.6235 16.688 11.6262 16.688 11.6288 16.688C11.6315 16.688 11.6342 16.688 11.6368 16.688C11.6394 16.688 11.6421 16.688 11.6447 16.688C11.6473 16.688 11.6499 16.688 11.6525 16.688C11.6552 16.688 11.6578 16.688 11.6603 16.688C11.6629 16.688 11.6655 16.688 11.6681 16.688C11.6706 16.688 11.6732 16.688 11.6757 16.688C11.6783 16.688 11.6808 16.688 11.6834 16.688C11.6859 16.688 11.6884 16.688 11.6909 16.688C11.6934 16.688 11.6959 16.688 11.6984 16.688C11.7009 16.688 11.7034 16.688 11.7059 16.688C11.7084 16.688 11.7108 16.688 11.7133 16.688C11.7157 16.688 11.7182 16.688 11.7206 16.688C11.723 16.688 11.7255 16.688 11.7279 16.688C11.7303 16.688 11.7327 16.688 11.7351 16.688C11.7375 16.688 11.7399 16.688 11.7422 16.688C11.7446 16.688 11.747 16.688 11.7493 16.688C11.7517 16.688 11.754 16.688 11.7564 16.688C11.7587 16.688 11.761 16.688 11.7633 16.688C11.7656 16.688 11.768 16.688 11.7702 16.688C11.7725 16.688 11.7748 16.688 11.7771 16.688C11.7794 16.688 11.7816 16.688 11.7839 16.688C11.7861 16.688 11.7884 16.688 11.7906 16.688C11.7928 16.688 11.7951 16.688 11.7973 16.688C11.7995 16.688 11.8017 16.688 11.8039 16.688C11.8061 16.688 11.8082 16.688 11.8104 16.688C11.8126 16.688 11.8147 16.688 11.8169 16.688C11.819 16.688 11.8212 16.688 11.8233 16.688C11.8254 16.688 11.8275 16.688 11.8296 16.688C11.8317 16.688 11.8338 16.688 11.8359 16.688C11.838 16.688 11.8401 16.688 11.8421 16.688C11.8442 16.688 11.8462 16.688 11.8483 16.688C11.8503 16.688 11.8524 16.688 11.8544 16.688C11.8564 16.688 11.8584 16.688 11.8604 16.688C11.8624 16.688 11.8644 16.688 11.8663 16.688C11.8683 16.688 11.8703 16.688 11.8722 16.688C11.8742 16.688 11.8761 16.688 11.878 16.688C11.88 16.688 11.8819 16.688 11.8838 16.688C11.8857 16.688 11.8876 16.688 11.8895 16.688C11.8914 16.688 11.8932 16.688 11.8951 16.688C11.897 16.688 11.8988 16.688 11.9006 16.688C11.9025 16.688 11.9043 16.688 11.9061 16.688C11.9079 16.688 11.9097 16.688 11.9115 16.688C11.9133 16.688 11.9151 16.688 11.9169 16.688C11.9186 16.688 11.9204 16.688 11.9221 16.688C11.9239 16.688 11.9256 16.688 11.9273 16.688C11.9291 16.688 11.9308 16.688 11.9325 16.688C11.9342 16.688 11.9358 16.688 11.9375 16.688C11.9392 16.688 11.9409 16.688 11.9425 16.688C11.9442 16.688 11.9458 16.688 11.9474 16.688C11.949 16.688 11.9507 16.688 11.9523 16.688C11.9539 16.688 11.9555 16.688 11.957 16.688C11.9586 16.688 11.9602 16.688 11.9617 16.688C11.9633 16.688 11.9648 16.688 11.9663 16.688C11.9679 16.688 11.9694 16.688 11.9709 16.688C11.9724 16.688 11.9739 16.688 11.9754 16.688C11.9769 16.688 11.9783 16.688 11.9798 16.688C11.9812 16.688 11.9827 16.688 11.9841 16.688C11.9855 16.688 11.9869 16.688 11.9884 16.688C11.9898 16.688 11.9911 16.688 11.9925 16.688C11.9939 16.688 11.9953 16.688 11.9966 16.688C11.998 16.688 11.9993 16.688 12.0007 16.688C12.002 16.688 12.0033 16.688 12.0046 16.688C12.0059 16.688 12.0072 16.688 12.0085 16.688C12.0097 16.688 12.011 16.688 12.0123 16.688C12.0135 16.688 12.0148 16.688 12.016 16.688C12.0172 16.688 12.0184 16.688 12.0196 16.688C12.0208 16.688 12.022 16.688 12.0232 16.688C12.0244 16.688 12.0255 16.688 12.0267 16.688C12.0278 16.688 12.0289 16.688 12.0301 16.688C12.0312 16.688 12.0323 16.688 12.0334 16.688C12.0345 16.688 12.0356 16.688 12.0366 16.688C12.0377 16.688 12.0388 16.688 12.0398 16.688C12.0408 16.688 12.0419 16.688 12.0429 16.688C12.0439 16.688 12.0449 16.688 12.0459 16.688C12.0469 16.688 12.0478 16.688 12.0488 16.688C12.0498 16.688 12.0507 16.688 12.0516 16.688C12.0526 16.688 12.0535 16.688 12.0544 16.688C12.0553 16.688 12.0562 16.688 12.0571 16.688C12.058 16.688 12.0588 16.688 12.0597 16.688C12.0605 16.688 12.0614 16.688 12.0622 16.688C12.063 16.688 12.0638 16.688 12.0646 16.688C12.0654 16.688 12.0662 16.688 12.067 16.688C12.0677 16.688 12.0685 16.688 12.0692 16.688C12.07 16.688 12.0707 16.688 12.0714 16.688C12.0721 16.688 12.0728 16.688 12.0735 16.688C12.0742 16.688 12.0748 16.688 12.0755 16.688C12.0762 16.688 12.0768 16.688 12.0774 16.688C12.078 16.688 12.0787 16.688 12.0793 16.688C12.0799 16.688 12.0804 16.688 12.081 16.688C12.0816 16.688 12.0821 16.688 12.0827 16.688C12.0832 16.688 12.0837 16.688 12.0842 16.688C12.0848 16.688 12.0853 16.688 12.0857 16.688C12.0862 16.688 12.0867 16.688 12.0871 16.688C12.0876 16.688 12.088 16.688 12.0885 16.688C12.0889 16.688 12.0893 16.688 12.0897 16.688C12.0901 16.688 12.0905 16.688 12.0908 16.688C12.0912 16.688 12.0915 16.688 12.0919 16.688C12.0922 16.688 12.0925 16.688 12.0928 16.688C12.0931 16.688 12.0934 16.688 12.0937 16.688C12.094 16.688 12.0942 16.688 12.0945 16.688C12.0947 16.688 12.0949 16.688 12.0952 16.688C12.0954 16.688 12.0956 16.688 12.0958 16.688C12.0959 16.688 12.0961 16.688 12.0963 16.688C12.0964 16.688 12.0966 16.688 12.0967 16.688C12.0968 16.688 12.0969 16.688 12.097 16.688C12.0971 16.688 12.0972 16.688 12.0972 16.688C12.0973 16.688 12.0973 16.688 12.0974 16.688C12.0974 16.688 12.0974 16.688 12.0974 16.088ZM12.0974 16.088L11.4986 16.0506C11.4491 16.8424 11.3125 17.2273 11.1356 17.4268C10.9863 17.5952 10.7052 17.7409 10.0127 17.7328L10.0056 18.3327L9.9985 18.9327C10.8285 18.9425 11.5427 18.7763 12.0334 18.223C12.4964 17.7008 12.6445 16.9544 12.6963 16.1254L12.0974 16.088ZM10.0056 18.3327L9.99451 17.7328C9.27145 17.7462 8.98919 17.5758 8.84088 17.3957C8.65597 17.1712 8.53748 16.7721 8.47569 16.0377L7.8778 16.088L7.27991 16.1383C7.34276 16.8853 7.47392 17.6236 7.91462 18.1586C8.39192 18.7381 9.11123 18.9493 10.0167 18.9326L10.0056 18.3327Z" fill="#141B34"/>
</svg>
