<svg width="16" height="16" viewBox="0 0 16 16" fill="none" xmlns="http://www.w3.org/2000/svg">
<path d="M8 11.333C9 11.333 12 8.99967 12 5.77745C12 3.33301 10.3333 1.33301 8 1.33301C5.66667 1.33301 4 3.33301 4 5.77745C4 8.99967 7 11.333 8 11.333Z" stroke="white" stroke-linecap="round" stroke-linejoin="round"/>
<path d="M7.99999 5.66667C8.18408 5.66667 8.33332 5.51743 8.33332 5.33333C8.33332 5.14924 8.18408 5 7.99999 5C7.81589 5 7.66666 5.14924 7.66666 5.33333C7.66666 5.51743 7.81589 5.66667 7.99999 5.66667Z" fill="white" stroke="white" stroke-linecap="round" stroke-linejoin="round"/>
<path d="M3.66666 12C3.04301 12.2757 2.66666 12.6242 2.66666 12.9728C2.66666 13.9326 5.06666 14.6667 7.99999 14.6667C10.9333 14.6667 13.3333 13.9326 13.3333 12.9728C13.3333 12.6242 12.957 12.2757 12.3333 12" stroke="white" stroke-linecap="round" stroke-linejoin="round"/>
</svg>
