<svg width="16" height="16" viewBox="0 0 16 16" fill="none" xmlns="http://www.w3.org/2000/svg">
<path d="M8 11.3334C9 11.3334 12 9.00004 12 5.77782C12 3.33337 10.3333 1.33337 8 1.33337C5.66667 1.33337 4 3.33337 4 5.77782C4 9.00004 7 11.3334 8 11.3334Z" stroke="#929292" stroke-linecap="round" stroke-linejoin="round"/>
<path d="M8.00008 5.66667C8.18418 5.66667 8.33341 5.51743 8.33341 5.33333C8.33341 5.14924 8.18418 5 8.00008 5C7.81599 5 7.66675 5.14924 7.66675 5.33333C7.66675 5.51743 7.81599 5.66667 8.00008 5.66667Z" fill="#929292" stroke="#929292" stroke-linecap="round" stroke-linejoin="round"/>
<path d="M3.66675 12C3.0431 12.2757 2.66675 12.6242 2.66675 12.9728C2.66675 13.9326 5.06675 14.6667 8.00008 14.6667C10.9334 14.6667 13.3334 13.9326 13.3334 12.9728C13.3334 12.6242 12.9571 12.2757 12.3334 12" stroke="#929292" stroke-linecap="round" stroke-linejoin="round"/>
</svg>
