<svg width="24" height="24" viewBox="0 0 24 24" fill="none" xmlns="http://www.w3.org/2000/svg">
<path d="M12.7454 0.196875C12.286 -0.065625 11.7188 -0.065625 11.2547 0.196875L0.754747 6.19687C0.164122 6.53437 -0.126503 7.22812 0.0469349 7.88437C0.220372 8.54062 0.820372 9 1.50006 9H3.00006V18.75L0.60006 20.55C0.220372 20.8312 5.98652e-05 21.2766 5.98652e-05 21.75C5.98652e-05 22.5797 0.670372 23.25 1.50006 23.25H22.5001C23.3297 23.25 24.0001 22.5797 24.0001 21.75C24.0001 21.2766 23.7797 20.8312 23.4001 20.55L21.0001 18.75V9H22.5001C23.1797 9 23.7751 8.54062 23.9485 7.88437C24.1219 7.22812 23.8313 6.53437 23.2407 6.19687L12.7407 0.196875H12.7454ZM18.7501 9V18.75H15.7501V9H18.7501ZM13.5001 9V18.75H10.5001V9H13.5001ZM8.25006 9V18.75H5.25006V9H8.25006ZM12.0001 3.75C12.3979 3.75 12.7794 3.90804 13.0607 4.18934C13.342 4.47064 13.5001 4.85218 13.5001 5.25C13.5001 5.64782 13.342 6.02936 13.0607 6.31066C12.7794 6.59196 12.3979 6.75 12.0001 6.75C11.6022 6.75 11.2207 6.59196 10.9394 6.31066C10.6581 6.02936 10.5001 5.64782 10.5001 5.25C10.5001 4.85218 10.6581 4.47064 10.9394 4.18934C11.2207 3.90804 11.6022 3.75 12.0001 3.75Z" fill="black"/>
</svg>
