<svg width="20" height="20" viewBox="0 0 20 20" fill="none" xmlns="http://www.w3.org/2000/svg">
<path d="M9.99996 18.3334C6.07159 18.3334 4.1074 18.3334 2.88701 17.113C1.66663 15.8926 1.66663 13.9284 1.66663 10C1.66663 6.07165 1.66663 4.10746 2.88701 2.88708C4.1074 1.66669 6.07159 1.66669 9.99996 1.66669C13.9283 1.66669 15.8925 1.66669 17.1129 2.88708C18.1469 3.92109 18.3048 5.48908 18.3289 8.33335" stroke="white" stroke-width="1.25" stroke-linecap="round"/>
<path d="M15.8334 16.6667V13.3333V10" stroke="white" stroke-width="1.25" stroke-linecap="round"/>
<circle cx="14.1667" cy="16.6667" r="1.66667" stroke="white" stroke-width="1.25"/>
<path d="M18.3334 12.5C16.9527 12.5 15.8334 11.3807 15.8334 10" stroke="white" stroke-width="1.25" stroke-linecap="round"/>
<path d="M7.5 10C7.5 8.61929 8.61929 7.5 10 7.5C11.3807 7.5 12.5 8.61929 12.5 10C12.5 11.3807 11.3807 12.5 10 12.5C8.61929 12.5 7.5 11.3807 7.5 10Z" stroke="white" stroke-width="1.25"/>
</svg>
