<svg width="21" height="20" viewBox="0 0 21 20" fill="none" xmlns="http://www.w3.org/2000/svg">
<path d="M9.13732 1.44097C9.43667 0.519657 10.7401 0.519656 11.0394 1.44097L12.558 6.11473C12.6919 6.52675 13.0759 6.80571 13.5091 6.80571H18.4234C19.3921 6.80571 19.7949 8.04533 19.0112 8.61473L15.0354 11.5033C14.6849 11.7579 14.5383 12.2093 14.6721 12.6213L16.1907 17.2951C16.4901 18.2164 15.4356 18.9825 14.6519 18.4131L10.6762 15.5246C10.3257 15.2699 9.85108 15.2699 9.50059 15.5246L5.52486 18.4131C4.74114 18.9825 3.68666 18.2164 3.98601 17.2951L5.50461 12.6213C5.63848 12.2093 5.49183 11.7579 5.14134 11.5033L1.1656 8.61473C0.381886 8.04533 0.784662 6.80571 1.75338 6.80571H6.66767C7.10089 6.80571 7.48485 6.52675 7.61872 6.11473L9.13732 1.44097Z" fill="#F9DE32" stroke="#F9DE32" stroke-width="1.5"/>
</svg>
