<svg width="40" height="40" viewBox="0 0 40 40" fill="none" xmlns="http://www.w3.org/2000/svg">
<path d="M20.0003 36.6666C24.6027 36.6666 28.3337 32.9356 28.3337 28.3333C28.3337 25.6073 27.0248 23.1869 25.0012 21.6666V8.33407C25.0012 6.78017 25.0012 6.00322 24.7472 5.39039C24.4088 4.5741 23.7603 3.92554 22.944 3.58724C22.3312 3.33325 21.5542 3.33325 20.0003 3.33325C18.4465 3.33325 17.6695 3.33325 17.0567 3.58724C16.2404 3.92554 15.5918 4.5741 15.2535 5.39039C14.9995 6.00322 14.9995 6.78017 14.9995 8.33407V21.6666C12.9759 23.1869 11.667 25.6073 11.667 28.3333C11.667 32.9356 15.398 36.6666 20.0003 36.6666Z" stroke="#1EAA9D" stroke-width="1.5" stroke-linejoin="round"/>
<path d="M20.0003 24.9999C18.1593 24.9999 16.667 26.4923 16.667 28.3333C16.667 30.1743 18.1593 31.6666 20.0003 31.6666C21.8413 31.6666 23.3337 30.1743 23.3337 28.3333C23.3337 26.4923 21.8413 24.9999 20.0003 24.9999ZM20.0003 24.9999V13.3333" stroke="#1EAA9D" stroke-width="1.5" stroke-linecap="round" stroke-linejoin="round"/>
</svg>
