<svg width="16" height="16" viewBox="0 0 16 16" fill="none" xmlns="http://www.w3.org/2000/svg">
<g clip-path="url(#clip0_985_4204)">
<path d="M11.4633 5.85467C12.4581 6.59228 13.6768 7.02627 14.9929 7.02627V4.39919C14.7438 4.39929 14.4954 4.37232 14.2517 4.31872V6.38661C12.9356 6.38661 11.7171 5.95267 10.7221 5.21512V10.5763C10.7221 13.2583 8.6261 15.4322 6.04072 15.4322C5.07605 15.4322 4.17939 15.1297 3.43457 14.6109C4.28468 15.5125 5.47022 16.0718 6.78176 16.0718C9.36735 16.0718 11.4634 13.8979 11.4634 11.2158V5.85467H11.4633ZM12.3778 3.20426C11.8694 2.62816 11.5356 1.88365 11.4633 1.06053V0.722656H10.7609C10.9377 1.76879 11.5409 2.66254 12.3778 3.20426ZM5.06982 12.5529C4.78576 12.1666 4.63222 11.694 4.63294 11.2081C4.63294 9.98151 5.59165 8.98694 6.77446 8.98694C6.99486 8.98682 7.21396 9.02192 7.42406 9.09102V6.40518C7.17854 6.3703 6.93078 6.35544 6.68313 6.36091V8.45141C6.47292 8.3823 6.25371 8.34721 6.03321 8.34739C4.85045 8.34739 3.89179 9.34184 3.89179 10.5686C3.89179 11.436 4.37096 12.187 5.06982 12.5529Z" fill="#FF004F"/>
<path d="M10.5647 5.18961C11.5682 5.92299 12.7968 6.35447 14.1241 6.35447V4.29829C13.3832 4.13687 12.7274 3.74095 12.2343 3.19021C11.3903 2.6515 10.7821 1.76281 10.6038 0.722656H8.74321V11.1562C8.73897 12.3726 7.77383 13.3575 6.5836 13.3575C5.88228 13.3575 5.25916 13.0156 4.86457 12.4858C4.15991 12.1221 3.67665 11.3753 3.67665 10.5129C3.67665 9.29318 4.64339 8.30425 5.83615 8.30425C6.06468 8.30425 6.28493 8.34063 6.49155 8.40768V6.32902C3.9301 6.38316 1.87012 8.5237 1.87012 11.1563C1.87012 12.4705 2.38308 13.6618 3.21567 14.5323C3.96678 15.0481 4.87096 15.349 5.84383 15.349C8.45109 15.349 10.5648 13.1872 10.5648 10.5205L10.5647 5.18961Z" fill="black"/>
<path d="M14.1234 4.2043V3.64939C13.4491 3.65038 12.7881 3.45937 12.2159 3.09817C12.7224 3.659 13.3892 4.04575 14.1234 4.20441M10.5701 0.634787C10.5529 0.535568 10.5398 0.435687 10.5306 0.335389V0H7.93742V10.4158C7.9333 11.63 6.95911 12.6132 5.75766 12.6132C5.41706 12.6137 5.08111 12.5331 4.77696 12.378C5.17526 12.9067 5.80423 13.248 6.51213 13.248C7.71347 13.248 8.68777 12.2649 8.692 11.0506V0.634842L10.5701 0.634787ZM6.41937 6.23156V5.64072C6.20268 5.61078 5.98422 5.59578 5.76552 5.59584C3.13352 5.59584 1 7.75389 1 10.4158C1 12.0848 1.8385 13.5556 3.1127 14.4207C2.27231 13.5518 1.75452 12.3624 1.75452 11.0506C1.75452 8.42253 3.83378 6.2856 6.41937 6.23156Z" fill="#00F2EA"/>
</g>
<defs>
<clipPath id="clip0_985_4204">
<rect width="16" height="16" fill="white"/>
</clipPath>
</defs>
</svg>

