<svg width="16" height="16" viewBox="0 0 16 16" fill="none" xmlns="http://www.w3.org/2000/svg">
<path d="M15.6436 3.75434C15.5518 3.41526 15.3728 3.10612 15.1245 2.85773C14.8761 2.60933 14.5669 2.43033 14.2279 2.33856C12.9865 2 7.99033 2 7.99033 2C7.99033 2 2.99393 2.01025 1.75254 2.34881C1.41345 2.44058 1.10432 2.61959 0.855935 2.868C0.607546 3.11641 0.428567 3.42556 0.336821 3.76466C-0.0386679 5.97035 -0.184327 9.33132 0.347132 11.4488C0.438887 11.7879 0.61787 12.097 0.866258 12.3454C1.11465 12.5938 1.42377 12.7728 1.76286 12.8646C3.00424 13.2031 8.00051 13.2031 8.00051 13.2031C8.00051 13.2031 12.9967 13.2031 14.238 12.8646C14.5771 12.7728 14.8863 12.5938 15.1347 12.3454C15.3831 12.097 15.5621 11.7879 15.6538 11.4488C16.0499 9.23996 16.1719 5.88105 15.6436 3.75434Z" fill="#FF0000"/>
<path d="M6.39941 10.0025L10.5441 7.60183L6.39941 5.20117V10.0025Z" fill="white"/>
</svg>

